<mxfile host="app.diagrams.net" agent="Mozilla/5.0 (X11; Linux x86_64) AppleWebKit/537.36 (KHTML, like Gecko) Chrome/125.0.0.0 Safari/537.36" version="24.9.3">
  <diagram name="PÃ¡gina-1" id="Zpf5QdaSkmduTiKQrWi5">
    <mxGraphModel dx="1114" dy="578" grid="1" gridSize="10" guides="1" tooltips="1" connect="1" arrows="1" fold="1" page="1" pageScale="1" pageWidth="827" pageHeight="1169" math="0" shadow="0">
      <root>
        <mxCell id="0" />
        <mxCell id="1" parent="0" />
        <mxCell id="CcF0GsHl9vM5tq0Z4Ygo-3" style="edgeStyle=orthogonalEdgeStyle;rounded=0;orthogonalLoop=1;jettySize=auto;html=1;" edge="1" parent="1" source="CcF0GsHl9vM5tq0Z4Ygo-1">
          <mxGeometry relative="1" as="geometry">
            <mxPoint x="400" y="280" as="targetPoint" />
          </mxGeometry>
        </mxCell>
        <mxCell id="CcF0GsHl9vM5tq0Z4Ygo-1" value="Inicio do algoritmo" style="ellipse;whiteSpace=wrap;html=1;fontFamily=Times New Roman;" vertex="1" parent="1">
          <mxGeometry x="330" y="180" width="140" height="60" as="geometry" />
        </mxCell>
        <mxCell id="CcF0GsHl9vM5tq0Z4Ygo-12" value="" style="edgeStyle=orthogonalEdgeStyle;rounded=0;orthogonalLoop=1;jettySize=auto;html=1;" edge="1" parent="1" source="CcF0GsHl9vM5tq0Z4Ygo-4" target="CcF0GsHl9vM5tq0Z4Ygo-11">
          <mxGeometry relative="1" as="geometry" />
        </mxCell>
        <mxCell id="CcF0GsHl9vM5tq0Z4Ygo-4" value="n1" style="shape=parallelogram;perimeter=parallelogramPerimeter;whiteSpace=wrap;html=1;fixedSize=1;" vertex="1" parent="1">
          <mxGeometry x="330" y="280" width="140" height="30" as="geometry" />
        </mxCell>
        <mxCell id="CcF0GsHl9vM5tq0Z4Ygo-14" value="" style="edgeStyle=orthogonalEdgeStyle;rounded=0;orthogonalLoop=1;jettySize=auto;html=1;" edge="1" parent="1" source="CcF0GsHl9vM5tq0Z4Ygo-11" target="CcF0GsHl9vM5tq0Z4Ygo-13">
          <mxGeometry relative="1" as="geometry" />
        </mxCell>
        <mxCell id="CcF0GsHl9vM5tq0Z4Ygo-11" value="n2" style="shape=parallelogram;perimeter=parallelogramPerimeter;whiteSpace=wrap;html=1;fixedSize=1;" vertex="1" parent="1">
          <mxGeometry x="330" y="350" width="140" height="30" as="geometry" />
        </mxCell>
        <mxCell id="CcF0GsHl9vM5tq0Z4Ygo-16" value="" style="edgeStyle=orthogonalEdgeStyle;rounded=0;orthogonalLoop=1;jettySize=auto;html=1;" edge="1" parent="1" source="CcF0GsHl9vM5tq0Z4Ygo-13" target="CcF0GsHl9vM5tq0Z4Ygo-15">
          <mxGeometry relative="1" as="geometry" />
        </mxCell>
        <mxCell id="CcF0GsHl9vM5tq0Z4Ygo-13" value="media= (n1 + n2)/2" style="whiteSpace=wrap;html=1;" vertex="1" parent="1">
          <mxGeometry x="330" y="430" width="140" height="30" as="geometry" />
        </mxCell>
        <mxCell id="CcF0GsHl9vM5tq0Z4Ygo-20" value="" style="edgeStyle=orthogonalEdgeStyle;rounded=0;orthogonalLoop=1;jettySize=auto;html=1;" edge="1" parent="1" source="CcF0GsHl9vM5tq0Z4Ygo-15" target="CcF0GsHl9vM5tq0Z4Ygo-19">
          <mxGeometry relative="1" as="geometry" />
        </mxCell>
        <mxCell id="CcF0GsHl9vM5tq0Z4Ygo-22" value="" style="edgeStyle=orthogonalEdgeStyle;rounded=0;orthogonalLoop=1;jettySize=auto;html=1;" edge="1" parent="1" source="CcF0GsHl9vM5tq0Z4Ygo-15" target="CcF0GsHl9vM5tq0Z4Ygo-21">
          <mxGeometry relative="1" as="geometry" />
        </mxCell>
        <mxCell id="CcF0GsHl9vM5tq0Z4Ygo-15" value="media &amp;gt;=5" style="rhombus;whiteSpace=wrap;html=1;" vertex="1" parent="1">
          <mxGeometry x="330" y="500" width="140" height="55" as="geometry" />
        </mxCell>
        <mxCell id="CcF0GsHl9vM5tq0Z4Ygo-27" value="" style="edgeStyle=orthogonalEdgeStyle;rounded=0;orthogonalLoop=1;jettySize=auto;html=1;" edge="1" parent="1" source="CcF0GsHl9vM5tq0Z4Ygo-19" target="CcF0GsHl9vM5tq0Z4Ygo-23">
          <mxGeometry relative="1" as="geometry" />
        </mxCell>
        <mxCell id="CcF0GsHl9vM5tq0Z4Ygo-19" value="aprovado" style="shape=document;whiteSpace=wrap;html=1;boundedLbl=1;" vertex="1" parent="1">
          <mxGeometry x="190" y="580" width="120" height="60" as="geometry" />
        </mxCell>
        <mxCell id="CcF0GsHl9vM5tq0Z4Ygo-26" value="" style="edgeStyle=orthogonalEdgeStyle;rounded=0;orthogonalLoop=1;jettySize=auto;html=1;" edge="1" parent="1" source="CcF0GsHl9vM5tq0Z4Ygo-21" target="CcF0GsHl9vM5tq0Z4Ygo-23">
          <mxGeometry relative="1" as="geometry" />
        </mxCell>
        <mxCell id="CcF0GsHl9vM5tq0Z4Ygo-21" value="reprovado" style="shape=document;whiteSpace=wrap;html=1;boundedLbl=1;" vertex="1" parent="1">
          <mxGeometry x="490" y="580" width="120" height="60" as="geometry" />
        </mxCell>
        <mxCell id="CcF0GsHl9vM5tq0Z4Ygo-23" value="Fim do algoritmo" style="ellipse;whiteSpace=wrap;html=1;" vertex="1" parent="1">
          <mxGeometry x="340" y="620" width="120" height="60" as="geometry" />
        </mxCell>
      </root>
    </mxGraphModel>
  </diagram>
</mxfile>
